<mxfile host="app.diagrams.net" modified="2023-11-14T15:44:32.781Z" agent="Mozilla/5.0 (X11; Ubuntu; Linux x86_64; rv:109.0) Gecko/20100101 Firefox/119.0" etag="AxR9Dt07mnM9R9d3qAwa" version="21.6.1" type="device">
  <diagram name="Page-1" id="5dJnx9Lx-BVwgVH-jLCf">
    <mxGraphModel dx="842" dy="441" grid="1" gridSize="10" guides="1" tooltips="1" connect="1" arrows="1" fold="1" page="1" pageScale="1" pageWidth="827" pageHeight="1169" math="0" shadow="0">
      <root>
        <mxCell id="0" />
        <mxCell id="1" parent="0" />
        <mxCell id="4PcoCXynAxBBddTjYnkj-2" value="" style="rounded=0;whiteSpace=wrap;html=1;" vertex="1" parent="1">
          <mxGeometry x="240" y="120" width="40" height="80" as="geometry" />
        </mxCell>
        <mxCell id="4PcoCXynAxBBddTjYnkj-3" value="" style="rounded=0;whiteSpace=wrap;html=1;fillColor=#f5f5f5;strokeColor=#666666;gradientColor=#77767b;" vertex="1" parent="1">
          <mxGeometry x="280" y="120" width="40" height="80" as="geometry" />
        </mxCell>
        <mxCell id="4PcoCXynAxBBddTjYnkj-4" value="" style="rounded=0;whiteSpace=wrap;html=1;rotation=-90;" vertex="1" parent="1">
          <mxGeometry x="380" y="140" width="40" height="80" as="geometry" />
        </mxCell>
        <mxCell id="4PcoCXynAxBBddTjYnkj-5" value="" style="rounded=0;whiteSpace=wrap;html=1;fillColor=#f5f5f5;strokeColor=#666666;gradientColor=#77767b;rotation=90;" vertex="1" parent="1">
          <mxGeometry x="380" y="100" width="40" height="80" as="geometry" />
        </mxCell>
        <mxCell id="4PcoCXynAxBBddTjYnkj-6" value="A" style="text;html=1;strokeColor=none;fillColor=none;align=center;verticalAlign=middle;whiteSpace=wrap;rounded=0;fontStyle=1;fontSize=17;" vertex="1" parent="1">
          <mxGeometry x="240" y="200" width="80" height="30" as="geometry" />
        </mxCell>
        <mxCell id="4PcoCXynAxBBddTjYnkj-7" value="&lt;div&gt;B&lt;/div&gt;" style="text;html=1;strokeColor=none;fillColor=none;align=center;verticalAlign=middle;whiteSpace=wrap;rounded=0;fontStyle=1;fontSize=17;" vertex="1" parent="1">
          <mxGeometry x="360" y="200" width="80" height="30" as="geometry" />
        </mxCell>
        <mxCell id="4PcoCXynAxBBddTjYnkj-8" value="" style="rounded=0;whiteSpace=wrap;html=1;" vertex="1" parent="1">
          <mxGeometry x="240" y="260" width="20" height="80" as="geometry" />
        </mxCell>
        <mxCell id="4PcoCXynAxBBddTjYnkj-9" value="" style="rounded=0;whiteSpace=wrap;html=1;fillColor=#f5f5f5;strokeColor=#666666;gradientColor=#77767b;" vertex="1" parent="1">
          <mxGeometry x="260" y="260" width="40" height="80" as="geometry" />
        </mxCell>
        <mxCell id="4PcoCXynAxBBddTjYnkj-10" value="C" style="text;html=1;strokeColor=none;fillColor=none;align=center;verticalAlign=middle;whiteSpace=wrap;rounded=0;fontStyle=1;fontSize=17;" vertex="1" parent="1">
          <mxGeometry x="240" y="340" width="80" height="30" as="geometry" />
        </mxCell>
        <mxCell id="4PcoCXynAxBBddTjYnkj-13" value="" style="rounded=0;whiteSpace=wrap;html=1;" vertex="1" parent="1">
          <mxGeometry x="300" y="260" width="20" height="80" as="geometry" />
        </mxCell>
        <mxCell id="4PcoCXynAxBBddTjYnkj-14" value="" style="rounded=0;whiteSpace=wrap;html=1;fillColor=#f5f5f5;strokeColor=#666666;gradientColor=#77767b;" vertex="1" parent="1">
          <mxGeometry x="400" y="260" width="40" height="40" as="geometry" />
        </mxCell>
        <mxCell id="4PcoCXynAxBBddTjYnkj-15" value="" style="rounded=0;whiteSpace=wrap;html=1;" vertex="1" parent="1">
          <mxGeometry x="400" y="300" width="40" height="40" as="geometry" />
        </mxCell>
        <mxCell id="4PcoCXynAxBBddTjYnkj-16" value="" style="rounded=0;whiteSpace=wrap;html=1;fillColor=#f5f5f5;strokeColor=#666666;gradientColor=#77767b;flipH=0;" vertex="1" parent="1">
          <mxGeometry x="360" y="300" width="40" height="40" as="geometry" />
        </mxCell>
        <mxCell id="4PcoCXynAxBBddTjYnkj-17" value="" style="rounded=0;whiteSpace=wrap;html=1;flipH=0;" vertex="1" parent="1">
          <mxGeometry x="360" y="260" width="40" height="40" as="geometry" />
        </mxCell>
        <mxCell id="4PcoCXynAxBBddTjYnkj-18" value="D" style="text;html=1;strokeColor=none;fillColor=none;align=center;verticalAlign=middle;whiteSpace=wrap;rounded=0;fontStyle=1;fontSize=17;" vertex="1" parent="1">
          <mxGeometry x="360" y="340" width="80" height="30" as="geometry" />
        </mxCell>
        <mxCell id="4PcoCXynAxBBddTjYnkj-19" value="" style="rounded=0;whiteSpace=wrap;html=1;fillColor=none;" vertex="1" parent="1">
          <mxGeometry x="230" y="110" width="100" height="120" as="geometry" />
        </mxCell>
        <mxCell id="4PcoCXynAxBBddTjYnkj-21" value="" style="rounded=0;whiteSpace=wrap;html=1;fillColor=none;" vertex="1" parent="1">
          <mxGeometry x="350" y="110" width="100" height="120" as="geometry" />
        </mxCell>
        <mxCell id="4PcoCXynAxBBddTjYnkj-22" value="" style="rounded=0;whiteSpace=wrap;html=1;fillColor=none;" vertex="1" parent="1">
          <mxGeometry x="350" y="250" width="100" height="120" as="geometry" />
        </mxCell>
        <mxCell id="4PcoCXynAxBBddTjYnkj-23" value="" style="rounded=0;whiteSpace=wrap;html=1;fillColor=none;" vertex="1" parent="1">
          <mxGeometry x="230" y="250" width="100" height="120" as="geometry" />
        </mxCell>
      </root>
    </mxGraphModel>
  </diagram>
</mxfile>
